<svg xmlns="http://www.w3.org/2000/svg" viewBox="0 0 242 224" fill="currentColor">
<g transform="translate(0,224) scale(0.1,-0.1)">
<path d="M781 2219 c-133 -22 -287 -133 -346 -249 -36 -71 -45 -176 -21 -246 24 -72 73 -141 140 -197 34 -28 52 -47 41 -42 -99 41 -135 49 -220 50 -79 0 -97 -4 -147 -28 -91 -45 -148 -119 -183 -241 -24 -83 -17 -239 15 -321 31 -80 124 -174 194 -198 72 -25 180 -22 269 6 l73 24 -71 -71 c-96 -95 -129 -163 -129 -266 -1 -66 4 -85 32 -142 60 -123 197 -223 346 -254 206 -43 377 76 417 291 16 85 27 110 28 63 1 -59 48 -189 87 -241 88 -120 240 -155 411 -96 117 40 232 141 281 246 38 83 37 185 -2 266 -27 56 -112 153 -171 195 -28 19 -25 19 32 -4 182 -72 329 -51 432 62 113 124 141 338 66 503 -61 131 -148 192 -289 199 -72 4 -93 1 -171 -26 l-90 -31 35 26 c61 46 130 126 158 183 23 47 27 68 27 140 0 78 -3 90 -34 148 -45 83 -135 165 -231 211 -72 35 -79 36 -185 36 -103 0 -113 -2 -163 -29 -29 -17 -67 -46 -84 -65 -46 -52 -88 -151 -102 -237 l-11 -75 -13 77 c-29 186 -129 306 -276 333 -67 12 -69 12 -145 0z"/>
</g>
</svg>