<?xml version="1.0" standalone="no"?>
<!DOCTYPE svg PUBLIC "-//W3C//DTD SVG 20010904//EN"
 "http://www.w3.org/TR/2001/REC-SVG-20010904/DTD/svg10.dtd">
<svg version="1.0" xmlns="http://www.w3.org/2000/svg"
 width="903.000000pt" height="136.000000pt" viewBox="0 0 903.000000 136.000000"
 preserveAspectRatio="xMidYMid meet">

<g transform="translate(0.000000,136.000000) scale(0.100000,-0.100000)"
fill="#365314" stroke="none">
<path d="M2865 1333 c-52 -14 -95 -69 -95 -124 0 -36 31 -89 63 -106 88 -45
187 13 187 109 0 37 -29 92 -57 106 -25 13 -74 21 -98 15z"/>
<path d="M4415 1333 c-52 -14 -95 -69 -95 -124 0 -36 31 -89 63 -106 88 -45
187 13 187 109 0 37 -29 92 -57 106 -25 13 -74 21 -98 15z"/>
<path d="M8917 1132 c-21 -23 -22 -75 -1 -92 23 -20 75 -16 90 5 20 26 17 69
-4 88 -24 22 -65 21 -85 -1z"/>
<path d="M355 1123 c-68 -17 -144 -92 -159 -156 -10 -44 12 -105 55 -152 l40
-44 -49 16 c-125 40 -222 -39 -222 -182 0 -148 96 -222 230 -178 l59 19 -40
-34 c-82 -71 -98 -152 -45 -232 45 -69 156 -115 230 -96 42 10 91 61 105 108
22 71 24 75 28 48 9 -54 25 -88 58 -120 89 -87 277 -21 316 110 16 54 -1 108
-49 162 -34 37 -35 40 -12 32 14 -5 53 -9 88 -9 61 0 65 1 102 41 61 66 73
168 28 256 -38 77 -126 101 -233 63 -14 -5 -12 0 8 15 40 32 77 101 77 144 0
107 -121 206 -236 193 -25 -2 -58 -13 -73 -24 -32 -24 -71 -97 -72 -138 -1
-24 -4 -19 -19 29 -35 110 -110 155 -215 129z"/>
<path d="M7178 1077 c-103 -39 -172 -101 -217 -197 -23 -49 -26 -67 -26 -170
0 -107 2 -119 28 -168 40 -75 96 -133 164 -168 54 -27 66 -29 173 -29 107 0
119 2 170 28 63 33 103 67 134 117 43 67 42 70 -19 70 -53 0 -55 -1 -84 -44
-21 -31 -48 -53 -86 -72 -50 -24 -64 -26 -134 -22 -90 5 -150 33 -195 93 -103
135 -78 357 51 445 70 48 164 63 245 38 44 -13 123 -78 133 -108 5 -17 15 -20
66 -20 l60 0 -27 51 c-34 62 -81 104 -154 138 -45 21 -72 26 -150 28 -61 2
-108 -2 -132 -10z"/>
<path d="M1463 961 c-151 -39 -247 -199 -223 -374 32 -228 275 -347 464 -227
l46 30 0 -185 0 -185 105 0 105 0 0 465 0 465 -105 0 -105 0 0 -37 0 -37 -27
26 c-16 14 -44 34 -63 43 -39 20 -147 29 -197 16z m200 -185 c54 -23 80 -59
85 -119 8 -95 -49 -161 -138 -161 -93 0 -155 67 -147 157 9 104 106 163 200
123z"/>
<path d="M4843 955 c-145 -45 -243 -172 -243 -315 0 -147 107 -277 260 -316
124 -31 274 8 358 94 23 24 42 47 42 51 0 4 -34 23 -76 44 l-76 38 -33 -30
c-68 -59 -193 -47 -236 23 -41 67 -44 66 206 66 l225 0 0 55 c0 133 -82 246
-205 284 -76 24 -160 26 -222 6z m167 -140 c31 -16 50 -43 50 -69 0 -14 -17
-16 -115 -16 -98 0 -115 2 -115 16 0 67 106 107 180 69z"/>
<path d="M5478 956 c-106 -29 -158 -90 -158 -188 0 -87 34 -123 174 -188 75
-34 86 -42 86 -64 0 -29 -25 -46 -67 -46 -32 0 -108 33 -137 58 -10 9 -21 13
-22 7 -2 -5 -22 -39 -43 -75 l-39 -64 31 -23 c52 -39 124 -57 217 -57 129 1
204 30 254 97 31 41 35 160 7 204 -25 40 -77 73 -161 103 -36 12 -73 27 -82
32 -22 11 -23 54 -2 62 28 11 89 6 138 -10 26 -9 49 -15 50 -13 2 2 18 33 36
68 37 74 38 73 -62 96 -80 18 -156 18 -220 1z"/>
<path d="M2040 742 c0 -240 10 -291 65 -346 55 -56 131 -79 260 -79 180 -1
272 40 319 143 19 40 21 68 24 268 l4 222 -106 0 -106 0 0 -160 c0 -254 -19
-300 -124 -300 -31 0 -61 6 -75 16 -43 31 -51 70 -51 264 l0 180 -105 0 -105
0 0 -208z"/>
<path d="M2790 640 l0 -310 105 0 105 0 0 310 0 310 -105 0 -105 0 0 -310z"/>
<path d="M3080 870 l0 -80 125 0 c69 0 125 -3 125 -6 0 -3 -64 -101 -143 -217
-79 -117 -146 -218 -151 -224 -6 -10 122 -13 623 -13 l631 0 0 80 0 79 -140 3
-140 3 133 200 c74 110 142 212 151 228 l18 27 -306 0 -306 0 0 -80 0 -80 130
0 130 0 -142 -211 -143 -210 -3 60 -3 61 -139 0 c-77 0 -140 2 -140 5 0 3 68
107 150 230 l150 225 -305 0 -305 0 0 -80z"/>
<path d="M4340 640 l0 -310 105 0 105 0 0 310 0 310 -105 0 -105 0 0 -310z"/>
<path d="M8750 930 c-48 -9 -94 -34 -119 -66 l-21 -27 0 42 0 41 -50 0 -50 0
0 -290 0 -290 50 0 50 0 0 193 c0 163 3 197 18 226 24 48 59 70 120 78 l52 6
0 43 c0 23 -3 45 -7 47 -5 2 -24 1 -43 -3z"/>
<path d="M7915 911 c-156 -70 -210 -289 -112 -452 84 -141 282 -169 403 -57
l44 41 0 -52 0 -51 45 0 45 0 0 290 0 290 -45 0 -45 0 0 -48 0 -49 -43 41
c-23 23 -61 47 -84 54 -60 18 -161 15 -208 -7z m223 -80 c61 -31 98 -86 108
-165 14 -99 -44 -211 -124 -237 -49 -16 -124 -14 -160 5 -149 77 -149 326 0
399 45 23 130 21 176 -2z"/>
<path d="M8910 630 l0 -290 50 0 50 0 0 290 0 290 -50 0 -50 0 0 -290z"/>
<path d="M6325 865 c-33 -32 -33 -80 0 -125 l25 -34 -30 -19 c-78 -49 -78
-165 0 -197 45 -19 139 -9 179 19 l32 23 28 -26 c16 -16 38 -26 56 -26 l29 0
-41 43 c-37 38 -40 44 -28 62 8 11 21 37 30 58 15 36 15 37 -7 37 -18 0 -28
-11 -43 -46 l-20 -46 -59 54 -60 54 39 36 c34 31 40 42 40 78 0 56 -29 80 -97
80 -39 0 -54 -5 -73 -25z m106 -15 c29 -16 25 -65 -7 -95 -35 -32 -40 -31 -64
8 -24 39 -25 55 -3 79 18 20 45 23 74 8z m68 -290 c3 -14 -63 -41 -104 -42
-59 -1 -85 21 -85 73 0 29 6 43 31 64 l32 26 62 -58 c35 -32 63 -60 64 -63z"/>
</g>
</svg>
