<?xml version="1.0" encoding="UTF-8"?>
<svg version="1.1" xmlns="http://www.w3.org/2000/svg" width="318" height="294">
<path d="M0 0 C10.55519718 9.93193792 15.36477255 23.16159528 17.67578125 37.1796875 C18.11277344 35.53033203 18.11277344 35.53033203 18.55859375 33.84765625 C22.20868322 20.49577424 27.03572077 5.93886571 39.40136719 -1.91650391 C52.33154621 -9.20288038 64.86477683 -10.65530916 79.49609375 -8.171875 C92.02889162 -4.56908053 102.55619909 1.95060779 111.67578125 11.1796875 C112.39636719 11.87835937 113.11695313 12.57703125 113.859375 13.296875 C123.11670005 22.85169443 126.98828125 34.1398567 126.98828125 47.23925781 C126.65028188 63.14827366 117.5378327 73.76959852 106.58203125 84.37890625 C105.95296875 84.97316406 105.32390625 85.56742187 104.67578125 86.1796875 C107.56800445 85.60236388 110.45862028 85.01895566 113.34765625 84.42578125 C128.19616919 81.4408457 141.12235586 80.739688 154.37109375 89.48046875 C166.2489529 98.23787338 172.66777398 111.01532835 175.00366211 125.45678711 C177.5625513 144.01272847 173.8994017 161.90438593 162.57421875 176.9765625 C154.23728792 186.01076391 142.74312137 190.9245739 130.55078125 191.4921875 C121.46834871 191.28431492 112.34054823 188.741251 103.67578125 186.1796875 C104.47242188 186.94152344 105.2690625 187.70335937 106.08984375 188.48828125 C117.83679804 199.86675447 125.76226118 210.93364649 126.92578125 227.8046875 C126.67961842 240.72823589 120.88191596 252.61371988 112.12890625 261.91796875 C98.29665181 274.67095493 81.0227273 283.00908022 61.90625 282.4609375 C50.01770338 281.42590079 39.54020019 277.11654352 31.33203125 268.26953125 C23.30988059 258.14724209 19.62326357 246.81922964 17.67578125 234.1796875 C17.38445312 235.42363281 17.093125 236.66757813 16.79296875 237.94921875 C14.50354551 247.3799361 12.22213786 256.06027886 6.67578125 264.1796875 C6.2375 264.829375 5.79921875 265.4790625 5.34765625 266.1484375 C-1.07724397 274.56727227 -11.54764516 279.82437278 -21.76171875 281.8671875 C-39.73419649 283.44372064 -56.60861181 277.99426115 -70.6484375 266.6015625 C-71.20144531 266.13234375 -71.75445312 265.663125 -72.32421875 265.1796875 C-73.54044922 264.25929688 -73.54044922 264.25929688 -74.78125 263.3203125 C-83.20273137 256.23126213 -89.27380922 244.9853457 -91.32421875 234.1796875 C-92.56089834 218.44750128 -88.25222403 207.58956293 -78.234375 195.69921875 C-75.049944 192.06410477 -71.76044318 188.57781631 -68.32421875 185.1796875 C-69.13246094 185.45683594 -69.94070312 185.73398438 -70.7734375 186.01953125 C-71.84207031 186.38175781 -72.91070312 186.74398437 -74.01171875 187.1171875 C-75.59533203 187.65666016 -75.59533203 187.65666016 -77.2109375 188.20703125 C-89.27252488 191.97533145 -101.75853115 191.1473964 -113.32421875 186.1796875 C-116.59078406 184.45179396 -119.45084073 182.49765911 -122.32421875 180.1796875 C-122.92621094 179.72464844 -123.52820313 179.26960937 -124.1484375 178.80078125 C-132.34117928 171.74950012 -138.10189067 158.80772653 -139.32421875 148.1796875 C-139.43121094 147.44621094 -139.53820312 146.71273437 -139.6484375 145.95703125 C-139.94678451 143.69811816 -140.1567964 141.45184801 -140.32421875 139.1796875 C-140.37835938 138.50679687 -140.4325 137.83390625 -140.48828125 137.140625 C-141.13859473 121.35574318 -135.57067699 106.0248839 -125.32421875 94.1796875 C-114.50681942 83.82260303 -103.18632617 81.63594118 -88.765625 81.8125 C-80.88674176 82.14131375 -73.68608572 84.50958031 -66.32421875 87.1796875 C-66.97648437 86.61121094 -67.62875 86.04273437 -68.30078125 85.45703125 C-79.20352855 75.82466306 -89.52913797 64.5379843 -90.59765625 49.2734375 C-90.90226275 39.51644409 -90.25528488 31.86775639 -85.32421875 23.1796875 C-84.87820312 22.38304687 -84.4321875 21.58640625 -83.97265625 20.765625 C-77.84365185 10.80171282 -69.38994807 3.91655406 -59.32421875 -1.8203125 C-58.62296875 -2.22121094 -57.92171875 -2.62210938 -57.19921875 -3.03515625 C-39.24612744 -12.62702963 -16.40812696 -12.85073473 0 0 Z " fill="#1a2e05" transform="translate(141.32421875,10.8203125)"/>
<path d="M0 0 C5.62374047 5.40604729 10.02846553 10.76495954 13 18 C13 18.66 13 19.32 13 20 C-2.3173582 21.38163253 -2.3173582 21.38163253 -6.18359375 18.20703125 C-7.5625 15.875 -7.5625 15.875 -8.7578125 13.390625 C-11.90248993 7.33860429 -18.82612466 4.21327606 -25 2 C-36.04800806 -0.59308619 -47.45631145 0.71577754 -57.38671875 6.35546875 C-59.40776204 7.79137188 -61.20099594 9.29589753 -63 11 C-63.54140625 11.50144531 -64.0828125 12.00289062 -64.640625 12.51953125 C-73.23628117 21.44078045 -75.32673595 33.40291074 -75.21484375 45.30078125 C-74.54692198 56.80117973 -70.63804008 68.50742594 -62.01953125 76.46875 C-52.39426742 83.76682238 -41.86230834 85.89073352 -30 85 C-20.8586196 83.45259706 -13.14174209 79.15142832 -7.5 71.75 C-6.18073117 69.85904801 -5.0308581 68.06171619 -4 66 C1.61 66 7.22 66 13 66 C8.95826534 78.12520398 1.4373925 86.36323659 -9.875 92.3125 C-23.78676681 98.71854569 -39.2574945 100.81325123 -54.0625 95.9375 C-60.45822091 93.50891989 -65.6872109 90.26680139 -71 86 C-71.886875 85.401875 -72.77375 84.80375 -73.6875 84.1875 C-81.90665049 76.41262791 -89.31580862 63.65122904 -89.98046875 52.1796875 C-89.98691406 51.46039063 -89.99335937 50.74109375 -90 50 C-90.03738281 48.93007812 -90.07476562 47.86015625 -90.11328125 46.7578125 C-90.45212424 30.1723398 -86.19258856 15.43779976 -75.0390625 2.7734375 C-55.06225715 -16.46073568 -21.44086986 -17.54252989 0 0 Z " fill="#1a2e05" transform="translate(196,104)"/>
</svg>
