<?xml version="1.0" encoding="UTF-8"?>
<svg version="1.1" xmlns="http://www.w3.org/2000/svg" width="317" height="294">
<path d="M0 0 C10.55519718 9.93193792 15.36477255 23.16159528 17.67578125 37.1796875 C18.11277344 35.53033203 18.11277344 35.53033203 18.55859375 33.84765625 C22.20868322 20.49577424 27.03572077 5.93886571 39.40136719 -1.91650391 C52.33154621 -9.20288038 64.86477683 -10.65530916 79.49609375 -8.171875 C92.02889162 -4.56908053 102.55619909 1.95060779 111.67578125 11.1796875 C112.39636719 11.87835937 113.11695313 12.57703125 113.859375 13.296875 C123.11670005 22.85169443 126.98828125 34.1398567 126.98828125 47.23925781 C126.65028188 63.14827366 117.5378327 73.76959852 106.58203125 84.37890625 C105.95296875 84.97316406 105.32390625 85.56742187 104.67578125 86.1796875 C107.56800445 85.60236388 110.45862028 85.01895566 113.34765625 84.42578125 C128.19616919 81.4408457 141.12235586 80.739688 154.37109375 89.48046875 C166.2489529 98.23787338 172.66777398 111.01532835 175.00366211 125.45678711 C177.5625513 144.01272847 173.8994017 161.90438593 162.57421875 176.9765625 C154.23728792 186.01076391 142.74312137 190.9245739 130.55078125 191.4921875 C121.46834871 191.28431492 112.34054823 188.741251 103.67578125 186.1796875 C104.47242188 186.94152344 105.2690625 187.70335937 106.08984375 188.48828125 C117.83679804 199.86675447 125.76226118 210.93364649 126.92578125 227.8046875 C126.67961842 240.72823589 120.88191596 252.61371988 112.12890625 261.91796875 C98.29665181 274.67095493 81.0227273 283.00908022 61.90625 282.4609375 C50.01770338 281.42590079 39.54020019 277.11654352 31.33203125 268.26953125 C23.30988059 258.14724209 19.62326357 246.81922964 17.67578125 234.1796875 C17.38445312 235.42363281 17.093125 236.66757813 16.79296875 237.94921875 C14.50354551 247.3799361 12.22213786 256.06027886 6.67578125 264.1796875 C6.2375 264.829375 5.79921875 265.4790625 5.34765625 266.1484375 C-1.07724397 274.56727227 -11.54764516 279.82437278 -21.76171875 281.8671875 C-39.73419649 283.44372064 -56.60861181 277.99426115 -70.6484375 266.6015625 C-71.20144531 266.13234375 -71.75445312 265.663125 -72.32421875 265.1796875 C-73.54044922 264.25929688 -73.54044922 264.25929688 -74.78125 263.3203125 C-83.20273137 256.23126213 -89.27380922 244.9853457 -91.32421875 234.1796875 C-92.56089834 218.44750128 -88.25222403 207.58956293 -78.234375 195.69921875 C-75.049944 192.06410477 -71.76044318 188.57781631 -68.32421875 185.1796875 C-69.13246094 185.45683594 -69.94070312 185.73398438 -70.7734375 186.01953125 C-71.84207031 186.38175781 -72.91070312 186.74398437 -74.01171875 187.1171875 C-75.59533203 187.65666016 -75.59533203 187.65666016 -77.2109375 188.20703125 C-89.27252488 191.97533145 -101.75853115 191.1473964 -113.32421875 186.1796875 C-116.59078406 184.45179396 -119.45084073 182.49765911 -122.32421875 180.1796875 C-122.92621094 179.72464844 -123.52820313 179.26960937 -124.1484375 178.80078125 C-132.34117928 171.74950012 -138.10189067 158.80772653 -139.32421875 148.1796875 C-139.43121094 147.44621094 -139.53820312 146.71273437 -139.6484375 145.95703125 C-139.94678451 143.69811816 -140.1567964 141.45184801 -140.32421875 139.1796875 C-140.37835938 138.50679687 -140.4325 137.83390625 -140.48828125 137.140625 C-141.13859473 121.35574318 -135.57067699 106.0248839 -125.32421875 94.1796875 C-114.50681942 83.82260303 -103.18632617 81.63594118 -88.765625 81.8125 C-80.88674176 82.14131375 -73.68608572 84.50958031 -66.32421875 87.1796875 C-66.97648437 86.61121094 -67.62875 86.04273437 -68.30078125 85.45703125 C-79.20352855 75.82466306 -89.52913797 64.5379843 -90.59765625 49.2734375 C-90.90226275 39.51644409 -90.25528488 31.86775639 -85.32421875 23.1796875 C-84.87820312 22.38304687 -84.4321875 21.58640625 -83.97265625 20.765625 C-77.84365185 10.80171282 -69.38994807 3.91655406 -59.32421875 -1.8203125 C-58.62296875 -2.22121094 -57.92171875 -2.62210938 -57.19921875 -3.03515625 C-39.24612744 -12.62702963 -16.40812696 -12.85073473 0 0 Z " fill="#84cc16" transform="translate(140.32421875,10.8203125)"/>
<path d="M0 0 C0.9384375 0.42410156 1.876875 0.84820312 2.84375 1.28515625 C13.83802381 6.70678303 21.11103253 14.78413344 26 26 C26 26.66 26 27.32 26 28 C10.6826418 29.38163253 10.6826418 29.38163253 6.81640625 26.20703125 C5.4375 23.875 5.4375 23.875 4.2421875 21.390625 C1.10827528 15.35932223 -5.82738326 12.17184663 -12 10 C-22.92474672 7.26881332 -34.58547962 8.79601541 -44.390625 14.35546875 C-53.55283932 20.87742665 -59.2536308 29.64089004 -61.68359375 40.65234375 C-63.49055079 54.05951882 -61.58649396 68.01077992 -53.46875 79.08984375 C-47.20429198 86.73533002 -39.75801745 91.22456382 -30 93 C-18.75854782 94.00938008 -9.32435563 92.31723031 -0.046875 85.75390625 C3.77430321 82.4796524 6.75189708 78.49620584 9 74 C14.61 74 20.22 74 26 74 C22.31374667 85.05876 15.48963711 93.64908364 5.296875 99.5703125 C2.56869278 100.87204516 -0.1580653 101.97206617 -3 103 C-3.81597656 103.31839844 -4.63195312 103.63679688 -5.47265625 103.96484375 C-18.18643052 108.22896897 -33.84888844 107.53352883 -46 102 C-49.85766881 99.89943711 -53.44388713 97.57450816 -57 95 C-58.60875 93.8553125 -58.60875 93.8553125 -60.25 92.6875 C-70.74607616 82.42997102 -76.90885843 69.40679714 -77.23217773 54.81518555 C-77.28863949 47.67857408 -77.01419717 40.89251284 -75 34 C-74.76667969 33.13375 -74.53335938 32.2675 -74.29296875 31.375 C-70.27264379 18.45121566 -61.02679173 7.86824216 -49.16796875 1.47265625 C-34.14848939 -5.61588052 -15.31000037 -7.40137066 0 0 Z " fill="#84cc16" transform="translate(182,96)"/>
</svg>
